<svg width="30" height="19" viewBox="0 0 30 19" fill="none" xmlns="http://www.w3.org/2000/svg">
<path d="M17.9461 11.3594H17.1448V11.9458H17.9461C18.1782 11.9458 18.3694 11.8151 18.3694 11.6526C18.3694 11.4901 18.1782 11.3594 17.9461 11.3594Z" fill="#636366"/>
<path d="M13.2384 13.2968V11.1445L12.2773 12.2184L13.2384 13.2968Z" fill="#8E8E93"/>
<path d="M14.9526 6.11328H14.1514V6.69984H14.9526C15.1853 6.69984 15.3766 6.56885 15.3766 6.40668C15.3766 6.24421 15.1853 6.11328 14.9526 6.11328Z" fill="#8E8E93"/>
<path d="M14.8134 11.3535H14.0127V11.9399H14.8134C15.046 11.9399 15.2373 11.8092 15.2373 11.6467C15.2373 11.4849 15.046 11.3535 14.8134 11.3535Z" fill="#8E8E93"/>
<path d="M3.87402 7.06028H4.6284L4.25136 6.13867L3.87402 7.06028Z" fill="#8E8E93"/>
<path d="M8.82031 11.3682V11.8443H10.4116V12.5466H8.82031V13.0705H10.4531L11.2179 12.2171L10.4531 11.3682H8.82031Z" fill="#8E8E93"/>
<path d="M28.2993 0H1.76929C0.792144 0 0 0.802706 0 1.79288V17.1412C0 18.1314 0.792144 18.9341 1.76929 18.9341H28.2993C29.2765 18.9341 30.0686 18.1314 30.0686 17.1412V1.79288C30.0686 0.802706 29.2765 0 28.2993 0ZM18.8289 5.37935L19.7849 5.40577V6.10207L18.9999 6.1123C18.9999 6.1123 18.4881 6.1123 18.4258 6.78807C18.4185 6.86561 18.4152 6.93697 18.4157 7.00315C18.4185 8.0492 19.3117 7.72444 19.3409 7.71474L20.302 5.40571H21.3868L22.5492 8.21227V5.40571H23.6448L24.8593 7.44265V5.40571H25.6398V8.50001H24.57L23.3403 6.43183V8.50001H22.6737H22.5492H21.8214L21.5472 7.85084H20.1314L19.8623 8.50001H19.1491H19.0201H18.6478C18.6478 8.50001 17.6043 8.34831 17.6043 7.03927C17.6044 5.32168 18.788 5.38988 18.8289 5.37935ZM16.5609 5.40583H17.3408V8.5106H16.5609V5.40583ZM10.5558 5.40583H12.9747V6.12825H11.3363V6.60465H12.9332V7.30636H11.3363V7.83019H12.9747V8.50007H10.5558V5.40583ZM6.75795 6.37428V8.50007H6.08115H5.97767H5.22834L4.95977 7.8509H3.54398L3.27006 8.50007H2.42259L3.70912 5.40577H4.79967L5.97767 8.24892V5.40577H7.2023L8.05511 7.32737L8.90293 5.40577H10.1275V8.50007H9.34141V6.36398L8.37025 8.50007H7.73474L6.75795 6.37428ZM14.7722 12.7469H14.013V13.7419H13.2483H12.5709L11.7501 12.8253L10.9225 13.7419H10.4526H8.03937V10.6421H10.4526H10.8609L11.7501 11.6266L12.6439 10.6472H13.2382V10.6421H15.1189C15.1189 10.6421 16.1007 10.5319 16.1007 11.5527C16.1007 12.464 15.7748 12.7469 14.7722 12.7469ZM16.183 7.73587V8.50007H15.4238V7.8981C15.4238 7.8981 15.3924 7.42676 14.9069 7.42676H14.1521V8.50007H13.3772V5.40577H15.2584C15.2584 5.40577 16.2401 5.28532 16.2401 6.31143C16.2401 6.84556 15.8061 7.03386 15.8061 7.03386C15.8061 7.03386 16.183 7.21227 16.183 7.73587ZM19.1704 12.9821V13.7469H18.4157V13.1447C18.4157 13.1447 18.3843 12.6737 17.8987 12.6737H17.1445V13.7469H16.369V10.6524H18.2502C18.2502 10.6524 19.232 10.532 19.232 11.5584C19.232 12.0924 18.798 12.2811 18.798 12.2811C18.798 12.2811 19.1704 12.4589 19.1704 12.9821ZM21.9706 11.3696H20.3327V11.8458H21.9296V12.5481H20.3327V13.072H21.9706V13.7419H19.5528V10.6524H21.9706V11.3696ZM23.7956 13.7406C23.7373 13.7406 23.7019 13.7367 23.7019 13.7367H22.322V13.0242H23.5315C23.5315 13.0242 23.9655 13.0765 23.9655 12.7788C23.9655 12.5003 23.3095 12.5219 23.3095 12.5219C23.3095 12.5219 22.2397 12.6163 22.2397 11.6004C22.2397 10.5896 23.2058 10.6472 23.2058 10.6472H24.6944V11.3697H23.4957C23.4957 11.3697 23.0819 11.2857 23.0819 11.5902C23.0819 11.8459 23.6448 11.8095 23.6448 11.8095C23.6448 11.8095 24.8284 11.7209 24.8284 12.6526C24.8284 13.652 24.0658 13.7406 23.7956 13.7406ZM26.5291 13.7406C26.4707 13.7406 26.4354 13.7367 26.4354 13.7367H25.0555V13.0242H26.2599C26.2599 13.0242 26.699 13.0765 26.699 12.7788C26.699 12.5003 26.043 12.5219 26.043 12.5219C26.043 12.5219 24.9731 12.6163 24.9731 11.6004C24.9731 10.5896 25.9391 10.6472 25.9391 10.6472H27.4228V11.3697H26.2286C26.2286 11.3697 25.8152 11.2857 25.8152 11.5902C25.8152 11.8459 26.3788 11.8095 26.3788 11.8095C26.3788 11.8095 27.5618 11.7209 27.5618 12.6526C27.5618 13.652 26.7993 13.7406 26.5291 13.7406Z" fill="#8E8E93"/>
<path d="M20.8453 6.13867L20.4629 7.06028H21.217L20.8453 6.13867Z" fill="#8E8E93"/>
</svg>
