<svg width="41" height="18" viewBox="0 0 41 18" fill="none" xmlns="http://www.w3.org/2000/svg">
<mask id="path-1-outside-1_1051_26905" maskUnits="userSpaceOnUse" x="-0.5" y="0.304443" width="41" height="18" fill="black">
<rect fill="white" x="-0.5" y="0.304443" width="41" height="18"/>
<path fill-rule="evenodd" clip-rule="evenodd" d="M39.5 14.2638C39.5 15.2397 38.8988 15.6942 37.8209 15.6942H35.7627V14.7175H37.8209C38.0113 14.7175 38.1691 14.686 38.2333 14.6207C38.2968 14.5553 38.3595 14.4576 38.3595 14.3277C38.3595 14.1969 38.2968 14.0677 38.2333 14.0031C38.1691 13.9378 38.043 13.9055 37.8526 13.9055C36.8707 13.8724 35.6358 13.9378 35.6358 12.5066C35.6358 11.856 36.0482 11.1408 37.1562 11.1408H39.2779V12.1167H37.3141C37.1245 12.1167 36.9968 12.1167 36.9024 12.1821C36.808 12.279 36.7446 12.3766 36.7446 12.5404C36.7446 12.7027 36.8398 12.8004 36.9651 12.865C37.092 12.898 37.2189 12.9303 37.3775 12.9303H37.947C38.5483 12.9303 38.929 13.0603 39.182 13.2887C39.3731 13.5163 39.5 13.8093 39.5 14.2638ZM35.0346 13.2887C34.7815 13.0603 34.4008 12.9303 33.7988 12.9303H33.2293C33.0707 12.9303 32.9438 12.898 32.8185 12.865C32.6916 12.8004 32.5964 12.7027 32.5964 12.5404C32.5964 12.3766 32.6281 12.279 32.755 12.1821C32.8494 12.1167 32.9755 12.1167 33.1659 12.1167H35.129V11.1408H33.0073C31.8675 11.1408 31.4868 11.8568 31.4868 12.5066C31.4868 13.9378 32.7233 13.8724 33.7037 13.9055C33.894 13.9055 34.0209 13.9378 34.0844 14.0031C34.147 14.0677 34.2113 14.1969 34.2113 14.3277C34.2113 14.4576 34.147 14.5553 34.0844 14.6207C33.9892 14.686 33.8623 14.7175 33.6727 14.7175H31.6145V15.6942H33.6727C34.749 15.6942 35.351 15.2389 35.351 14.2638C35.351 13.8093 35.2241 13.5163 35.0346 13.2887ZM30.9808 14.7514H28.4799V13.8409H30.9173V12.9296H28.4799V12.0836H30.9808V11.14H27.4353V15.6934H30.9808V14.7514ZM26.294 11.37C25.9466 11.1739 25.5349 11.1416 24.9956 11.1416H22.5582V15.695H23.6346V14.0362H24.7759C25.155 14.0362 25.3771 14.0693 25.5349 14.2315C25.7245 14.4592 25.7245 14.8498 25.7245 15.1428V15.6957H26.7691V14.8168C26.7691 14.3946 26.7382 14.1985 26.612 13.9716C26.5169 13.8416 26.3265 13.6786 26.0743 13.5809C26.3582 13.4833 26.8333 13.0934 26.8333 12.3774C26.8333 11.8568 26.643 11.5645 26.294 11.37ZM20.2787 11.1416H16.8903L15.5285 12.6381L14.2301 11.1416H9.95502V15.695H14.1667L15.5285 14.1985L16.8269 15.695H18.8851V14.1669H20.2153C21.1337 14.1669 22.0514 13.907 22.0514 12.6389C22.0514 11.4023 21.1012 11.1416 20.2787 11.1416ZM25.4398 13.028C25.2819 13.0934 25.1233 13.0934 24.9329 13.0934L23.6346 13.1257V12.0844H24.9329C25.1233 12.0844 25.3121 12.0844 25.4398 12.1821C25.5659 12.2474 25.6611 12.3766 25.6611 12.572C25.6611 12.7673 25.5659 12.9303 25.4398 13.028ZM20.2787 13.2556H18.8851V12.0852H20.2787C20.6586 12.0852 20.9109 12.2482 20.9109 12.6389C20.9109 13.028 20.6586 13.2556 20.2787 13.2556ZM16.194 13.4179L17.8405 11.6299V15.3043L16.194 13.4179ZM13.6281 14.7514H11.0004V13.8409H13.3434V12.9296H11.0004V12.0836H13.6606L14.8321 13.4164L13.6281 14.7514ZM36.5542 7.85707H35.0346L33.039 4.4426V7.85707H30.8856L30.4747 6.84811H28.2579L27.847 7.85707H26.612C26.1052 7.85707 25.4398 7.72634 25.0598 7.33567C24.7124 6.94578 24.5221 6.42515 24.5221 5.61306C24.5221 4.92939 24.6172 4.31264 25.0916 3.8243C25.408 3.46671 25.9783 3.30444 26.7064 3.30444H27.7201V4.27957H26.7064C26.3265 4.27957 26.1052 4.34493 25.8839 4.54027C25.6936 4.7356 25.5984 5.0932 25.5984 5.58076C25.5984 6.06909 25.6936 6.42669 25.8839 6.65432C26.0425 6.81658 26.3265 6.88195 26.612 6.88195H27.0864L28.6068 3.30521H30.19L31.9634 7.59791V3.30521H33.61L35.4787 6.45975V3.30521H36.555V7.85707H36.5542ZM23.9835 3.30444H22.9057V7.85707H23.9835V3.30444ZM21.7349 3.49978C21.3867 3.30444 21.0076 3.30444 20.4683 3.30444H18.0309V7.85707H19.0755V6.19829H20.216C20.5959 6.19829 20.849 6.23058 21.0076 6.39362C21.1972 6.62125 21.1654 7.01191 21.1654 7.27185V7.85784H22.2418V6.94655C22.2418 6.55665 22.21 6.36132 22.0522 6.13292C21.9578 6.00295 21.7674 5.84069 21.5454 5.74302C21.8309 5.61306 22.3052 5.25469 22.3052 4.54027C22.3044 4.01964 22.0831 3.72664 21.7349 3.49978ZM17.2703 6.91425H14.8004V6.00295H17.2385V5.05936H14.8004V4.24727H17.2703V3.30444H13.7233V7.85707H17.2703V6.91425ZM12.9317 3.30444H11.19L9.89157 6.39362L8.498 3.30444H6.78797V7.59714L4.98353 3.30444H3.40039L1.5 7.85707H2.64054L3.05219 6.84811H5.26828L5.67992 7.85707H7.83333V4.27957L9.38475 7.85707H10.3032L11.8546 4.27957V7.85707H12.9317V3.30444ZM30.0948 5.87299L29.3667 4.08424L28.6385 5.87299H30.0948ZM20.9109 5.15779C20.7538 5.25469 20.5952 5.25469 20.3739 5.25469H19.0747V4.24727H20.3739C20.5634 4.24727 20.7847 4.24727 20.9109 4.31263C21.0378 4.4103 21.1012 4.54027 21.1012 4.7356C21.1012 4.93016 21.0378 5.0932 20.9109 5.15779ZM3.43211 5.87299L4.15946 4.08424L4.88758 5.87299H3.43211Z"/>
</mask>
<path fill-rule="evenodd" clip-rule="evenodd" d="M39.5 14.2638C39.5 15.2397 38.8988 15.6942 37.8209 15.6942H35.7627V14.7175H37.8209C38.0113 14.7175 38.1691 14.686 38.2333 14.6207C38.2968 14.5553 38.3595 14.4576 38.3595 14.3277C38.3595 14.1969 38.2968 14.0677 38.2333 14.0031C38.1691 13.9378 38.043 13.9055 37.8526 13.9055C36.8707 13.8724 35.6358 13.9378 35.6358 12.5066C35.6358 11.856 36.0482 11.1408 37.1562 11.1408H39.2779V12.1167H37.3141C37.1245 12.1167 36.9968 12.1167 36.9024 12.1821C36.808 12.279 36.7446 12.3766 36.7446 12.5404C36.7446 12.7027 36.8398 12.8004 36.9651 12.865C37.092 12.898 37.2189 12.9303 37.3775 12.9303H37.947C38.5483 12.9303 38.929 13.0603 39.182 13.2887C39.3731 13.5163 39.5 13.8093 39.5 14.2638ZM35.0346 13.2887C34.7815 13.0603 34.4008 12.9303 33.7988 12.9303H33.2293C33.0707 12.9303 32.9438 12.898 32.8185 12.865C32.6916 12.8004 32.5964 12.7027 32.5964 12.5404C32.5964 12.3766 32.6281 12.279 32.755 12.1821C32.8494 12.1167 32.9755 12.1167 33.1659 12.1167H35.129V11.1408H33.0073C31.8675 11.1408 31.4868 11.8568 31.4868 12.5066C31.4868 13.9378 32.7233 13.8724 33.7037 13.9055C33.894 13.9055 34.0209 13.9378 34.0844 14.0031C34.147 14.0677 34.2113 14.1969 34.2113 14.3277C34.2113 14.4576 34.147 14.5553 34.0844 14.6207C33.9892 14.686 33.8623 14.7175 33.6727 14.7175H31.6145V15.6942H33.6727C34.749 15.6942 35.351 15.2389 35.351 14.2638C35.351 13.8093 35.2241 13.5163 35.0346 13.2887ZM30.9808 14.7514H28.4799V13.8409H30.9173V12.9296H28.4799V12.0836H30.9808V11.14H27.4353V15.6934H30.9808V14.7514ZM26.294 11.37C25.9466 11.1739 25.5349 11.1416 24.9956 11.1416H22.5582V15.695H23.6346V14.0362H24.7759C25.155 14.0362 25.3771 14.0693 25.5349 14.2315C25.7245 14.4592 25.7245 14.8498 25.7245 15.1428V15.6957H26.7691V14.8168C26.7691 14.3946 26.7382 14.1985 26.612 13.9716C26.5169 13.8416 26.3265 13.6786 26.0743 13.5809C26.3582 13.4833 26.8333 13.0934 26.8333 12.3774C26.8333 11.8568 26.643 11.5645 26.294 11.37ZM20.2787 11.1416H16.8903L15.5285 12.6381L14.2301 11.1416H9.95502V15.695H14.1667L15.5285 14.1985L16.8269 15.695H18.8851V14.1669H20.2153C21.1337 14.1669 22.0514 13.907 22.0514 12.6389C22.0514 11.4023 21.1012 11.1416 20.2787 11.1416ZM25.4398 13.028C25.2819 13.0934 25.1233 13.0934 24.9329 13.0934L23.6346 13.1257V12.0844H24.9329C25.1233 12.0844 25.3121 12.0844 25.4398 12.1821C25.5659 12.2474 25.6611 12.3766 25.6611 12.572C25.6611 12.7673 25.5659 12.9303 25.4398 13.028ZM20.2787 13.2556H18.8851V12.0852H20.2787C20.6586 12.0852 20.9109 12.2482 20.9109 12.6389C20.9109 13.028 20.6586 13.2556 20.2787 13.2556ZM16.194 13.4179L17.8405 11.6299V15.3043L16.194 13.4179ZM13.6281 14.7514H11.0004V13.8409H13.3434V12.9296H11.0004V12.0836H13.6606L14.8321 13.4164L13.6281 14.7514ZM36.5542 7.85707H35.0346L33.039 4.4426V7.85707H30.8856L30.4747 6.84811H28.2579L27.847 7.85707H26.612C26.1052 7.85707 25.4398 7.72634 25.0598 7.33567C24.7124 6.94578 24.5221 6.42515 24.5221 5.61306C24.5221 4.92939 24.6172 4.31264 25.0916 3.8243C25.408 3.46671 25.9783 3.30444 26.7064 3.30444H27.7201V4.27957H26.7064C26.3265 4.27957 26.1052 4.34493 25.8839 4.54027C25.6936 4.7356 25.5984 5.0932 25.5984 5.58076C25.5984 6.06909 25.6936 6.42669 25.8839 6.65432C26.0425 6.81658 26.3265 6.88195 26.612 6.88195H27.0864L28.6068 3.30521H30.19L31.9634 7.59791V3.30521H33.61L35.4787 6.45975V3.30521H36.555V7.85707H36.5542ZM23.9835 3.30444H22.9057V7.85707H23.9835V3.30444ZM21.7349 3.49978C21.3867 3.30444 21.0076 3.30444 20.4683 3.30444H18.0309V7.85707H19.0755V6.19829H20.216C20.5959 6.19829 20.849 6.23058 21.0076 6.39362C21.1972 6.62125 21.1654 7.01191 21.1654 7.27185V7.85784H22.2418V6.94655C22.2418 6.55665 22.21 6.36132 22.0522 6.13292C21.9578 6.00295 21.7674 5.84069 21.5454 5.74302C21.8309 5.61306 22.3052 5.25469 22.3052 4.54027C22.3044 4.01964 22.0831 3.72664 21.7349 3.49978ZM17.2703 6.91425H14.8004V6.00295H17.2385V5.05936H14.8004V4.24727H17.2703V3.30444H13.7233V7.85707H17.2703V6.91425ZM12.9317 3.30444H11.19L9.89157 6.39362L8.498 3.30444H6.78797V7.59714L4.98353 3.30444H3.40039L1.5 7.85707H2.64054L3.05219 6.84811H5.26828L5.67992 7.85707H7.83333V4.27957L9.38475 7.85707H10.3032L11.8546 4.27957V7.85707H12.9317V3.30444ZM30.0948 5.87299L29.3667 4.08424L28.6385 5.87299H30.0948ZM20.9109 5.15779C20.7538 5.25469 20.5952 5.25469 20.3739 5.25469H19.0747V4.24727H20.3739C20.5634 4.24727 20.7847 4.24727 20.9109 4.31263C21.0378 4.4103 21.1012 4.54027 21.1012 4.7356C21.1012 4.93016 21.0378 5.0932 20.9109 5.15779ZM3.43211 5.87299L4.15946 4.08424L4.88758 5.87299H3.43211Z" fill="#0A78A9"/>
<path fill-rule="evenodd" clip-rule="evenodd" d="M39.5 14.2638C39.5 15.2397 38.8988 15.6942 37.8209 15.6942H35.7627V14.7175H37.8209C38.0113 14.7175 38.1691 14.686 38.2333 14.6207C38.2968 14.5553 38.3595 14.4576 38.3595 14.3277C38.3595 14.1969 38.2968 14.0677 38.2333 14.0031C38.1691 13.9378 38.043 13.9055 37.8526 13.9055C36.8707 13.8724 35.6358 13.9378 35.6358 12.5066C35.6358 11.856 36.0482 11.1408 37.1562 11.1408H39.2779V12.1167H37.3141C37.1245 12.1167 36.9968 12.1167 36.9024 12.1821C36.808 12.279 36.7446 12.3766 36.7446 12.5404C36.7446 12.7027 36.8398 12.8004 36.9651 12.865C37.092 12.898 37.2189 12.9303 37.3775 12.9303H37.947C38.5483 12.9303 38.929 13.0603 39.182 13.2887C39.3731 13.5163 39.5 13.8093 39.5 14.2638ZM35.0346 13.2887C34.7815 13.0603 34.4008 12.9303 33.7988 12.9303H33.2293C33.0707 12.9303 32.9438 12.898 32.8185 12.865C32.6916 12.8004 32.5964 12.7027 32.5964 12.5404C32.5964 12.3766 32.6281 12.279 32.755 12.1821C32.8494 12.1167 32.9755 12.1167 33.1659 12.1167H35.129V11.1408H33.0073C31.8675 11.1408 31.4868 11.8568 31.4868 12.5066C31.4868 13.9378 32.7233 13.8724 33.7037 13.9055C33.894 13.9055 34.0209 13.9378 34.0844 14.0031C34.147 14.0677 34.2113 14.1969 34.2113 14.3277C34.2113 14.4576 34.147 14.5553 34.0844 14.6207C33.9892 14.686 33.8623 14.7175 33.6727 14.7175H31.6145V15.6942H33.6727C34.749 15.6942 35.351 15.2389 35.351 14.2638C35.351 13.8093 35.2241 13.5163 35.0346 13.2887ZM30.9808 14.7514H28.4799V13.8409H30.9173V12.9296H28.4799V12.0836H30.9808V11.14H27.4353V15.6934H30.9808V14.7514ZM26.294 11.37C25.9466 11.1739 25.5349 11.1416 24.9956 11.1416H22.5582V15.695H23.6346V14.0362H24.7759C25.155 14.0362 25.3771 14.0693 25.5349 14.2315C25.7245 14.4592 25.7245 14.8498 25.7245 15.1428V15.6957H26.7691V14.8168C26.7691 14.3946 26.7382 14.1985 26.612 13.9716C26.5169 13.8416 26.3265 13.6786 26.0743 13.5809C26.3582 13.4833 26.8333 13.0934 26.8333 12.3774C26.8333 11.8568 26.643 11.5645 26.294 11.37ZM20.2787 11.1416H16.8903L15.5285 12.6381L14.2301 11.1416H9.95502V15.695H14.1667L15.5285 14.1985L16.8269 15.695H18.8851V14.1669H20.2153C21.1337 14.1669 22.0514 13.907 22.0514 12.6389C22.0514 11.4023 21.1012 11.1416 20.2787 11.1416ZM25.4398 13.028C25.2819 13.0934 25.1233 13.0934 24.9329 13.0934L23.6346 13.1257V12.0844H24.9329C25.1233 12.0844 25.3121 12.0844 25.4398 12.1821C25.5659 12.2474 25.6611 12.3766 25.6611 12.572C25.6611 12.7673 25.5659 12.9303 25.4398 13.028ZM20.2787 13.2556H18.8851V12.0852H20.2787C20.6586 12.0852 20.9109 12.2482 20.9109 12.6389C20.9109 13.028 20.6586 13.2556 20.2787 13.2556ZM16.194 13.4179L17.8405 11.6299V15.3043L16.194 13.4179ZM13.6281 14.7514H11.0004V13.8409H13.3434V12.9296H11.0004V12.0836H13.6606L14.8321 13.4164L13.6281 14.7514ZM36.5542 7.85707H35.0346L33.039 4.4426V7.85707H30.8856L30.4747 6.84811H28.2579L27.847 7.85707H26.612C26.1052 7.85707 25.4398 7.72634 25.0598 7.33567C24.7124 6.94578 24.5221 6.42515 24.5221 5.61306C24.5221 4.92939 24.6172 4.31264 25.0916 3.8243C25.408 3.46671 25.9783 3.30444 26.7064 3.30444H27.7201V4.27957H26.7064C26.3265 4.27957 26.1052 4.34493 25.8839 4.54027C25.6936 4.7356 25.5984 5.0932 25.5984 5.58076C25.5984 6.06909 25.6936 6.42669 25.8839 6.65432C26.0425 6.81658 26.3265 6.88195 26.612 6.88195H27.0864L28.6068 3.30521H30.19L31.9634 7.59791V3.30521H33.61L35.4787 6.45975V3.30521H36.555V7.85707H36.5542ZM23.9835 3.30444H22.9057V7.85707H23.9835V3.30444ZM21.7349 3.49978C21.3867 3.30444 21.0076 3.30444 20.4683 3.30444H18.0309V7.85707H19.0755V6.19829H20.216C20.5959 6.19829 20.849 6.23058 21.0076 6.39362C21.1972 6.62125 21.1654 7.01191 21.1654 7.27185V7.85784H22.2418V6.94655C22.2418 6.55665 22.21 6.36132 22.0522 6.13292C21.9578 6.00295 21.7674 5.84069 21.5454 5.74302C21.8309 5.61306 22.3052 5.25469 22.3052 4.54027C22.3044 4.01964 22.0831 3.72664 21.7349 3.49978ZM17.2703 6.91425H14.8004V6.00295H17.2385V5.05936H14.8004V4.24727H17.2703V3.30444H13.7233V7.85707H17.2703V6.91425ZM12.9317 3.30444H11.19L9.89157 6.39362L8.498 3.30444H6.78797V7.59714L4.98353 3.30444H3.40039L1.5 7.85707H2.64054L3.05219 6.84811H5.26828L5.67992 7.85707H7.83333V4.27957L9.38475 7.85707H10.3032L11.8546 4.27957V7.85707H12.9317V3.30444ZM30.0948 5.87299L29.3667 4.08424L28.6385 5.87299H30.0948ZM20.9109 5.15779C20.7538 5.25469 20.5952 5.25469 20.3739 5.25469H19.0747V4.24727H20.3739C20.5634 4.24727 20.7847 4.24727 20.9109 4.31263C21.0378 4.4103 21.1012 4.54027 21.1012 4.7356C21.1012 4.93016 21.0378 5.0932 20.9109 5.15779ZM3.43211 5.87299L4.15946 4.08424L4.88758 5.87299H3.43211Z" stroke="white" stroke-width="2" mask="url(#path-1-outside-1_1051_26905)"/>
</svg>
