<svg width="22" height="26" viewBox="0 0 22 26" fill="none" xmlns="http://www.w3.org/2000/svg">
<path d="M20.3337 4.83325C20.3337 6.76625 18.7667 8.33325 16.8337 8.33325C14.9007 8.33325 13.3337 6.76625 13.3337 4.83325C13.3337 2.90026 14.9007 1.33325 16.8337 1.33325C18.7667 1.33325 20.3337 2.90026 20.3337 4.83325Z" fill="#0A84FF"/>
<path d="M9.91733 3.74766C6.64088 4.24231 4.02055 6.94835 3.62657 10.4263L3.22421 13.9782C3.12423 14.8607 2.76653 15.6913 2.1984 16.36C0.99276 17.779 1.97127 19.9999 3.80215 19.9999H18.1985C20.0294 19.9999 21.0079 17.779 19.8023 16.36C19.2341 15.6913 18.8764 14.8607 18.7764 13.9782L18.5106 11.6311M14.5003 22.3333C13.9909 23.6926 12.6162 24.6666 11.0003 24.6666C9.38446 24.6666 8.00979 23.6926 7.50033 22.3333M20.3337 4.83325C20.3337 6.76625 18.7667 8.33325 16.8337 8.33325C14.9007 8.33325 13.3337 6.76625 13.3337 4.83325C13.3337 2.90026 14.9007 1.33325 16.8337 1.33325C18.7667 1.33325 20.3337 2.90026 20.3337 4.83325Z" stroke="white" stroke-width="1.5" stroke-linecap="round"/>
</svg>
