<svg width="22" height="24" viewBox="0 0 22 24" fill="none" xmlns="http://www.w3.org/2000/svg">
<path d="M2.1984 14.1934L1.62683 13.7078H1.62683L2.1984 14.1934ZM3.22421 11.8116L2.47898 11.7272L3.22421 11.8116ZM18.7764 11.8116L19.5217 11.7272L18.7764 11.8116ZM19.8023 14.1934L20.3738 13.7078L19.8023 14.1934ZM18.3741 8.25971L17.6288 8.34413L18.3741 8.25971ZM3.62657 8.25971L4.3718 8.34413L3.62657 8.25971ZM15.2026 20.4299C15.348 20.042 15.1514 19.6097 14.7635 19.4644C14.3757 19.319 13.9434 19.5156 13.798 19.9035L15.2026 20.4299ZM8.20262 19.9035C8.05726 19.5156 7.62499 19.319 7.23712 19.4644C6.84925 19.6097 6.65266 20.042 6.79803 20.4299L8.20262 19.9035ZM18.1985 17.0833H3.80215V18.5833H18.1985V17.0833ZM17.6288 8.34413L18.0312 11.896L19.5217 11.7272L19.1193 8.17529L17.6288 8.34413ZM3.96944 11.896L4.3718 8.34413L2.88133 8.17529L2.47898 11.7272L3.96944 11.896ZM2.76997 14.679C3.43579 13.8953 3.85292 12.9246 3.96944 11.896L2.47898 11.7272C2.39555 12.4637 2.09727 13.1541 1.62683 13.7078L2.76997 14.679ZM18.0312 11.896C18.1477 12.9246 18.5649 13.8953 19.2307 14.679L20.3738 13.7078C19.9034 13.1541 19.6051 12.4637 19.5217 11.7272L18.0312 11.896ZM3.80215 17.0833C2.65381 17.0833 1.94993 15.6442 2.76997 14.679L1.62683 13.7078C0.0355877 15.5807 1.28874 18.5833 3.80215 18.5833V17.0833ZM18.1985 18.5833C20.7119 18.5833 21.9651 15.5807 20.3738 13.7078L19.2307 14.679C20.0507 15.6442 19.3468 17.0833 18.1985 17.0833V18.5833ZM19.1193 8.17529C18.6418 3.95987 15.1664 0.75 11.0003 0.75V2.25C14.3687 2.25 17.2333 4.85212 17.6288 8.34413L19.1193 8.17529ZM4.3718 8.34413C4.76738 4.85212 7.63192 2.25 11.0003 2.25V0.75C6.83427 0.75 3.35886 3.95987 2.88133 8.17529L4.3718 8.34413ZM13.798 19.9035C13.4025 20.9588 12.3157 21.75 11.0003 21.75V23.25C12.9166 23.25 14.5792 22.0934 15.2026 20.4299L13.798 19.9035ZM11.0003 21.75C9.68491 21.75 8.59812 20.9588 8.20262 19.9035L6.79803 20.4299C7.42146 22.0934 9.08401 23.25 11.0003 23.25V21.75Z" fill="white"/>
</svg>
