<svg width="26" height="24" viewBox="0 0 26 24" fill="none" xmlns="http://www.w3.org/2000/svg">
<path d="M4.83506 23.456C5.16695 23.456 5.6021 23.3754 6.1405 23.2143C6.6789 23.0531 7.25971 22.837 7.88293 22.566C8.50614 22.295 9.12199 21.9965 9.73046 21.6705C10.3389 21.3445 10.8792 21.013 11.3512 20.6761C11.4471 20.6102 11.5356 20.5626 11.6167 20.5333C11.6978 20.504 11.7753 20.4893 11.849 20.4893C11.9227 20.4967 11.9965 20.5022 12.0703 20.5059C12.1441 20.5095 12.2141 20.5113 12.2805 20.5113C13.8736 20.5113 15.3523 20.3428 16.7168 20.0059C18.0812 19.6689 19.3073 19.1928 20.3952 18.5775C21.4831 17.9622 22.4106 17.2389 23.1776 16.4075C23.9446 15.5761 24.5309 14.6623 24.9366 13.6661C25.3422 12.6698 25.545 11.626 25.545 10.5346C25.545 9.15016 25.2223 7.85362 24.577 6.64498C23.9317 5.43635 23.0356 4.37605 21.8887 3.46408C20.7418 2.55211 19.4087 1.83791 17.8894 1.3215C16.3701 0.805083 14.7401 0.546875 12.9996 0.546875C11.259 0.546875 9.62904 0.805083 8.10972 1.3215C6.59039 1.83791 5.2573 2.55211 4.11043 3.46408C2.96356 4.37605 2.06746 5.43635 1.42212 6.64498C0.776773 7.85362 0.454102 9.15016 0.454102 10.5346C0.454102 11.7066 0.684582 12.82 1.14554 13.8748C1.6065 14.9297 2.26659 15.8947 3.12583 16.77C3.98505 17.6453 5.00469 18.398 6.18475 19.028C6.26588 19.072 6.31936 19.1324 6.34517 19.2093C6.37098 19.2862 6.36176 19.365 6.31751 19.4456C6.11099 19.7825 5.86761 20.1304 5.58735 20.4893C5.30709 20.8483 5.03604 21.1797 4.77422 21.4837C4.51239 21.7877 4.31141 22.0313 4.17128 22.2144C3.9574 22.4927 3.90761 22.7693 4.02192 23.0439C4.13624 23.3186 4.40729 23.456 4.83506 23.456Z" fill="#4D4D52"/>
</svg>
