<svg width="22" height="20" viewBox="0 0 22 20" fill="none" xmlns="http://www.w3.org/2000/svg">
<path d="M5.37596 3.58397C5.1462 3.92862 5.23933 4.39427 5.58397 4.62404C5.92862 4.8538 6.39427 4.76067 6.62404 4.41603L5.37596 3.58397ZM7.40627 1.8906L8.0303 2.30662L7.40627 1.8906ZM14.5937 1.8906L15.2178 1.47457L14.5937 1.8906ZM15.376 4.41603C15.6057 4.76067 16.0714 4.8538 16.416 4.62404C16.7607 4.39427 16.8538 3.92862 16.624 3.58397L15.376 4.41603ZM13.25 11.5C13.25 12.7426 12.2426 13.75 11 13.75V15.25C13.0711 15.25 14.75 13.5711 14.75 11.5H13.25ZM11 13.75C9.75736 13.75 8.75 12.7426 8.75 11.5H7.25C7.25 13.5711 8.92893 15.25 11 15.25V13.75ZM8.75 11.5C8.75 10.2574 9.75736 9.25 11 9.25V7.75C8.92893 7.75 7.25 9.42893 7.25 11.5H8.75ZM11 9.25C12.2426 9.25 13.25 10.2574 13.25 11.5H14.75C14.75 9.42893 13.0711 7.75 11 7.75V9.25ZM6.62404 4.41603L8.0303 2.30662L6.78223 1.47457L5.37596 3.58397L6.62404 4.41603ZM9.07037 1.75H12.9296V0.25H9.07037V1.75ZM13.9697 2.30662L15.376 4.41603L16.624 3.58397L15.2178 1.47457L13.9697 2.30662ZM12.9296 1.75C13.3476 1.75 13.7379 1.95888 13.9697 2.30662L15.2178 1.47457C14.7077 0.709528 13.8491 0.25 12.9296 0.25V1.75ZM8.0303 2.30662C8.26214 1.95888 8.65243 1.75 9.07037 1.75V0.25C8.1509 0.25 7.29226 0.709528 6.78223 1.47457L8.0303 2.30662ZM5 4.75H17V3.25H5V4.75ZM20.25 8V15H21.75V8H20.25ZM17 18.25H5V19.75H17V18.25ZM1.75 15V8H0.25V15H1.75ZM5 18.25C3.20507 18.25 1.75 16.7949 1.75 15H0.25C0.25 17.6234 2.37665 19.75 5 19.75V18.25ZM20.25 15C20.25 16.7949 18.7949 18.25 17 18.25V19.75C19.6234 19.75 21.75 17.6234 21.75 15H20.25ZM17 4.75C18.7949 4.75 20.25 6.20507 20.25 8H21.75C21.75 5.37665 19.6234 3.25 17 3.25V4.75ZM5 3.25C2.37665 3.25 0.25 5.37665 0.25 8H1.75C1.75 6.20507 3.20507 4.75 5 4.75V3.25Z" fill="white"/>
</svg>
