<svg width="23" height="19" viewBox="0 0 23 19" fill="none" xmlns="http://www.w3.org/2000/svg">
<g clip-path="url(#clip0_2004_15147)">
<path d="M2.94055 18.3831H20.0595C21.0334 18.3831 21.7669 18.134 22.2602 17.636C22.7534 17.138 23 16.3909 23 15.3948V5.30189C23 4.3122 22.7534 3.56833 22.2602 3.07027C21.7669 2.57222 21.0334 2.3232 20.0595 2.3232H17.3811C17.1314 2.3232 16.9316 2.30391 16.7817 2.26535C16.6319 2.22679 16.4992 2.16092 16.3838 2.06774C16.2683 1.97455 16.1387 1.84762 15.9951 1.68696L15.2459 0.819383C15.0149 0.555895 14.759 0.35346 14.478 0.212076C14.1971 0.070692 13.8162 0 13.3354 0H9.59896C9.11821 0 8.73893 0.070692 8.46111 0.212076C8.18328 0.35346 7.92575 0.555895 7.68851 0.819383L6.93933 1.68696C6.7333 1.92474 6.54288 2.09023 6.36807 2.18341C6.19326 2.2766 5.92169 2.3232 5.55334 2.3232H2.94055C1.96037 2.3232 1.22523 2.57222 0.735138 3.07027C0.245046 3.56833 0 4.3122 0 5.30189V15.3948C0 16.3909 0.245046 17.138 0.735138 17.636C1.22523 18.134 1.96037 18.3831 2.94055 18.3831ZM5.00081 9.88083L6.49918 7.71184C6.63028 7.51904 6.78949 7.42586 6.97678 7.43229C7.16408 7.43871 7.32016 7.5319 7.44502 7.71184L8.96212 9.88083C9.08699 10.0543 9.12445 10.2262 9.0745 10.3965C9.02456 10.5668 8.89033 10.652 8.67182 10.652H7.68851C7.82586 11.224 8.07871 11.7365 8.44706 12.1895C8.81541 12.6426 9.26337 13.0009 9.79095 13.2644C10.3185 13.5279 10.8944 13.6596 11.5187 13.6596C11.9682 13.6596 12.3725 13.5873 12.7315 13.4427C13.0905 13.2981 13.4385 13.0876 13.7756 12.8113C13.9567 12.6699 14.1486 12.5944 14.3516 12.5847C14.5545 12.5751 14.7371 12.6603 14.8994 12.8402C15.0617 13.0201 15.1195 13.2242 15.0727 13.4523C15.0258 13.6805 14.89 13.8845 14.6653 14.0644C14.2595 14.4115 13.7788 14.683 13.2231 14.879C12.6675 15.075 12.0993 15.1731 11.5187 15.1731C10.6259 15.1731 9.81118 14.9835 9.0745 14.6043C8.3378 14.2252 7.72597 13.695 7.239 13.0137C6.75203 12.3325 6.43362 11.5452 6.28378 10.652H5.29112C5.07261 10.652 4.93994 10.5668 4.89311 10.3965C4.84629 10.2262 4.88219 10.0543 5.00081 9.88083ZM8.10993 6.70931C7.9476 6.53578 7.88985 6.33495 7.93668 6.10681C7.9835 5.87867 8.11929 5.67463 8.34404 5.49469C8.74986 5.14765 9.23059 4.87452 9.78625 4.6753C10.3419 4.47608 10.9131 4.37647 11.5 4.37647C12.3865 4.37647 13.1981 4.56766 13.9348 4.95004C14.6715 5.33241 15.2834 5.8626 15.7703 6.54061C16.2573 7.21861 16.5757 8.00425 16.7255 8.89753H17.6621C17.8868 8.89753 18.021 8.98269 18.0647 9.15299C18.1084 9.32329 18.0709 9.4952 17.9523 9.66872L16.454 11.8474C16.3228 12.0401 16.1637 12.1333 15.9764 12.1269C15.7891 12.1205 15.633 12.0273 15.5082 11.8474L13.991 9.66872C13.8661 9.4952 13.8287 9.32329 13.8787 9.15299C13.9286 8.98269 14.0628 8.89753 14.2814 8.89753H15.3209C15.1835 8.32557 14.9306 7.81306 14.5622 7.35998C14.1939 6.90692 13.746 6.55025 13.2185 6.28997C12.6909 6.02969 12.1181 5.89956 11.5 5.89956C11.0442 5.89956 10.6369 5.97025 10.2779 6.11164C9.91887 6.25302 9.57081 6.46188 9.23371 6.73822C9.05265 6.87961 8.86223 6.95673 8.66245 6.96958C8.46266 6.98243 8.27849 6.89567 8.10993 6.70931Z" fill="#4D4D52"/>
</g>
<defs>
<clipPath id="clip0_2004_15147">
<rect width="23" height="19" fill="white"/>
</clipPath>
</defs>
</svg>
