<svg width="16" height="16" viewBox="0 0 16 16" fill="none" xmlns="http://www.w3.org/2000/svg">
<path fill-rule="evenodd" clip-rule="evenodd" d="M6.67489 7.99991L0.50089 14.1739C0.134726 14.5401 0.134725 15.1337 0.50089 15.4999C0.867055 15.8661 1.46073 15.8661 1.82689 15.4999L8.00089 9.32591L14.1749 15.4999C14.5411 15.8661 15.1347 15.8661 15.5009 15.4999C15.8671 15.1337 15.8671 14.5401 15.5009 14.1739L9.32689 7.99991L15.5009 1.82591C15.8671 1.45975 15.8671 0.866078 15.5009 0.499913C15.1347 0.133749 14.5411 0.133749 14.1749 0.499914L8.00089 6.67391L1.82689 0.499914C1.46073 0.13375 0.867055 0.133749 0.50089 0.499914C0.134726 0.866079 0.134726 1.45975 0.500891 1.82591L6.67489 7.99991Z" fill="white"/>
</svg>
