<svg width="23" height="21" viewBox="0 0 23 21" fill="none" xmlns="http://www.w3.org/2000/svg">
<path d="M18.5314 11.8148L23 14.3438V5.62226L18.5314 8.15127V11.8148Z" fill="#4D4D52"/>
<path d="M0.143474 1.40848C-0.0427888 1.22262 -0.0484318 0.915419 0.130871 0.722338L0.663548 0.148726C0.84285 -0.0443557 1.1392 -0.0502043 1.32546 0.135662L20.8228 19.5915C21.0091 19.7774 21.0147 20.0846 20.8354 20.2777L20.3027 20.8513C20.1234 21.0444 19.8271 21.0502 19.6408 20.8643L0.143474 1.40848Z" fill="#4D4D52"/>
<path fill-rule="evenodd" clip-rule="evenodd" d="M5.91857 4.67773H4.85114C4.13323 4.67861 3.55163 5.28151 3.55078 6.0257V14.8963C3.55163 15.6405 4.13323 16.2434 4.85114 16.2442H15.6401C16.1566 16.2436 16.6028 15.9311 16.8126 15.4785L5.91857 4.67773ZM16.9404 14.2072V6.0257C16.9396 5.28151 16.3578 4.67861 15.6401 4.67773H7.27355L16.9404 14.2072Z" fill="#4D4D52"/>
</svg>
