<svg width="27" height="11" viewBox="0 0 27 11" fill="none" xmlns="http://www.w3.org/2000/svg">
<path d="M2.45522 10.8635L6.78746 10.8635C8.33469 10.8635 9.34036 9.23887 8.64414 7.92375C8.17994 6.99539 8.56675 5.83496 9.41775 5.29346C11.3518 4.13304 15.4519 4.05568 17.4633 5.29346C18.3917 5.75766 18.7012 6.99545 18.237 7.92376C17.5407 9.2389 18.5464 10.8635 20.0936 10.8635L24.4259 10.8635C25.5863 10.7861 26.5146 9.85779 26.5146 8.77473L26.5146 5.835C26.4373 2.8179 20.7125 0.342331 13.4406 0.34233C6.16857 0.342329 0.366432 2.7405 0.366462 5.83499L0.366462 8.77473C0.443794 9.93518 1.37213 10.8635 2.45522 10.8635Z" fill="#F5F6F8"/>
</svg>
