<svg width="16" height="26" viewBox="0 0 16 26" fill="none" xmlns="http://www.w3.org/2000/svg">
<path fill-rule="evenodd" clip-rule="evenodd" d="M1.10611 0.508261C1.56174 0.34722 2.06164 0.586029 2.22268 1.04166C3.06393 3.42177 5.3339 5.12491 7.9994 5.12491C8.066 5.12491 8.1324 5.12574 8.1986 5.12738C8.2648 5.12574 8.33121 5.12491 8.39781 5.12491C11.0633 5.12491 13.3333 3.42177 14.1745 1.04166C14.3356 0.586029 14.8355 0.34722 15.2911 0.508261C15.7467 0.669302 15.9855 1.16921 15.8245 1.62484C15.1282 3.59495 13.6698 5.20598 11.8029 6.10269C13.336 6.94992 14.5565 8.29342 15.2479 9.9165H1.14935C1.84067 8.29342 3.06121 6.94992 4.59428 6.10269C2.72737 5.20598 1.26905 3.59495 0.572715 1.62484C0.411674 1.16921 0.650482 0.669302 1.10611 0.508261ZM0.682047 11.4165H15.7152C15.8196 11.928 15.8744 12.4576 15.8744 12.9999C15.8744 13.5422 15.8196 14.0716 15.7152 14.583H0.681982C0.577611 14.0716 0.522806 13.5422 0.522806 12.9999C0.522806 12.4576 0.577633 11.928 0.682047 11.4165ZM1.14921 16.083C1.84051 17.7062 3.06111 19.0499 4.59428 19.8971C2.72737 20.7938 1.26905 22.4049 0.572714 24.375C0.411674 24.8306 0.650483 25.3305 1.10611 25.4916C1.56174 25.6526 2.06164 25.4138 2.22268 24.9582C3.06393 22.5781 5.3339 20.8749 7.9994 20.8749C8.066 20.8749 8.1324 20.8741 8.1986 20.8724C8.2648 20.8741 8.33121 20.8749 8.39781 20.8749C11.0633 20.8749 13.3333 22.5781 14.1745 24.9582C14.3356 25.4138 14.8355 25.6526 15.2911 25.4916C15.7467 25.3305 15.9855 24.8306 15.8245 24.375C15.1282 22.4049 13.6698 20.7938 11.8029 19.8971C13.3361 19.0499 14.5567 17.7062 15.248 16.083H1.14921Z" fill="white"/>
</svg>
