<svg width="20" height="20" viewBox="0 0 20 20" fill="none" xmlns="http://www.w3.org/2000/svg">
<path d="M1 3H8M8 3C8 4.10457 8.89543 5 10 5C11.1046 5 12 4.10457 12 3M8 3C8 1.89543 8.89543 1 10 1C11.1046 1 12 1.89543 12 3M1 10H10M17 10H19M17 10C17 11.1046 16.1046 12 15 12C13.8954 12 13 11.1046 13 10C13 8.89543 13.8954 8 15 8C16.1046 8 17 8.89543 17 10ZM12 3H19M10 17H19M1 17H3M3 17C3 18.1046 3.89543 19 5 19C6.10457 19 7 18.1046 7 17C7 15.8954 6.10457 15 5 15C3.89543 15 3 15.8954 3 17Z" stroke="white" stroke-width="1.5" stroke-linecap="round"/>
</svg>
