<svg width="26" height="19" viewBox="0 0 26 19" fill="none" xmlns="http://www.w3.org/2000/svg">
<path fill-rule="evenodd" clip-rule="evenodd" d="M5.12467 3.33333C5.12467 2.52792 4.47176 1.875 3.66634 1.875C2.86093 1.875 2.20801 2.52792 2.20801 3.33333V8C2.20801 9.79298 3.45251 11.2953 5.12484 11.6902C5.12473 11.6761 5.12467 11.662 5.12467 11.6479V6.83333V5.66695V3.33333ZM6.87467 4.25117V3.33333C6.87467 1.56142 5.43825 0.125 3.66634 0.125C1.89443 0.125 0.458008 1.56142 0.458008 3.33333V8C0.458008 10.8746 2.6467 13.238 5.44854 13.5146C5.77814 14.4358 6.34969 15.2643 7.11865 15.9051L7.95822 16.6047C10.8786 19.0384 15.1207 19.0384 18.0411 16.6047L18.8807 15.9051C19.6497 15.2643 20.2212 14.4358 20.5508 13.5146C23.3526 13.238 25.5413 10.8746 25.5413 8V3.33333C25.5413 1.56142 24.1049 0.125 22.333 0.125C20.5611 0.125 19.1247 1.56142 19.1247 3.33333V4.25117L15.478 2.42782C13.9179 1.64776 12.0815 1.64776 10.5214 2.42782L6.87467 4.25117ZM22.333 1.875C21.5276 1.875 20.8747 2.52792 20.8747 3.33333V5.66695V6.83333V11.6479L20.8745 11.6902C22.5468 11.2953 23.7913 9.79298 23.7913 8V3.33333C23.7913 2.52792 23.1384 1.875 22.333 1.875Z" fill="white"/>
</svg>
