<svg width="31" height="19" viewBox="0 0 31 19" fill="none" xmlns="http://www.w3.org/2000/svg">
<path d="M9.875 18.875C15.0527 18.875 19.25 14.6777 19.25 9.5C19.25 4.32233 15.0527 0.125 9.875 0.125C4.69733 0.125 0.5 4.32233 0.5 9.5C0.5 14.6777 4.69733 18.875 9.875 18.875Z" fill="#F93232"/>
<path d="M21.125 0.125C19.0194 0.125 17.0825 0.828125 15.5188 2H15.5V2.01312C15.1288 2.2925 14.7875 2.6075 14.4622 2.9375H16.5378C16.8266 3.23094 17.0928 3.545 17.3394 3.875H13.6531C13.4262 4.17406 13.2181 4.48625 13.0278 4.8125H17.9628C18.1391 5.11625 18.305 5.42563 18.4484 5.75H12.5506C12.4166 6.05469 12.2984 6.36687 12.1972 6.6875H18.8009C18.8984 6.99313 18.9753 7.30719 19.0428 7.625H11.9525C11.8897 7.9325 11.8372 8.24375 11.8053 8.5625H19.1938C19.2303 8.87 19.25 9.18219 19.25 9.5H11.75C11.75 9.81781 11.7753 10.1281 11.8063 10.4375H19.1956C19.16 10.7553 19.1084 11.0675 19.0438 11.375H11.9534C12.0181 11.6947 12.1016 12.0059 12.1981 12.3125H18.8019C18.7006 12.6331 18.5825 12.9453 18.4484 13.25H12.5506C12.6922 13.5725 12.8516 13.8856 13.0278 14.1875H17.9628C17.7734 14.5137 17.5625 14.8259 17.3356 15.125H13.6531C13.9025 15.455 14.1716 15.7691 14.4613 16.0625H16.5378C16.2116 16.3934 15.8712 16.7075 15.5 16.9869C17.0675 18.1672 19.0109 18.875 21.125 18.875C26.3028 18.875 30.5 14.6769 30.5 9.5C30.5 4.32313 26.3028 0.125 21.125 0.125Z" fill="#FED049"/>
</svg>
