<svg width="28" height="17" viewBox="0 0 28 17" fill="none" xmlns="http://www.w3.org/2000/svg">
<path d="M13.9994 1.8173C15.03 2.61174 15.8631 3.62599 16.4357 4.78331C17.0082 5.94062 17.3051 7.21066 17.3039 8.4973C17.3047 9.78352 17.0076 11.0531 16.4351 12.2099C15.8626 13.3668 15.0297 14.3806 13.9994 15.1748C12.9689 14.3805 12.1359 13.3664 11.5634 12.2094C10.9908 11.0523 10.6938 9.78248 10.6948 8.49605C10.6938 7.20962 10.9908 5.93983 11.5634 4.78275C12.1359 3.62566 12.9689 2.61161 13.9994 1.8173ZM12.8919 1.0898C11.8009 2.00427 10.9252 3.14046 10.3252 4.41984C9.72519 5.69921 9.41525 7.09128 9.41679 8.4998C9.41531 9.90772 9.72503 11.2992 10.3246 12.5781C10.9241 13.857 11.7992 14.9929 12.8894 15.9073C11.5724 16.6333 10.0848 17.0082 8.57454 16.9946C7.06427 16.9811 5.58392 16.5797 4.28062 15.8302C2.97731 15.0808 1.89646 14.0094 1.1455 12.7226C0.394537 11.4358 -0.000381954 9.97846 2.772e-07 8.49535C0.000382509 7.01224 0.396052 5.55506 1.14768 4.26865C1.8993 2.98224 2.98071 1.91141 4.2844 1.1626C5.58808 0.413791 7.06865 0.0130859 8.57892 0.000315114C10.0892 -0.0124556 11.5766 0.363153 12.8932 1.0898H12.8919ZM15.1094 15.9073C16.1995 14.9929 17.0746 13.857 17.6742 12.5781C18.2737 11.2992 18.5834 9.90772 18.5819 8.4998C18.5835 7.09128 18.2735 5.69921 17.6735 4.41984C17.0735 3.14046 16.1978 2.00427 15.1068 1.0898C16.4234 0.363153 17.9108 -0.0124556 19.4211 0.000315114C20.9314 0.0130859 22.4119 0.413791 23.7156 1.1626C25.0193 1.91141 26.1007 2.98224 26.8523 4.26865C27.6039 5.55506 27.9996 7.01224 28 8.49535C28.0004 9.97846 27.6055 11.4358 26.8545 12.7226C26.1035 14.0094 25.0227 15.0808 23.7194 15.8302C22.4161 16.5797 20.9357 16.9811 19.4255 16.9946C17.9152 17.0082 16.4276 16.6333 15.1106 15.9073H15.1094Z" fill="#8E8E93"/>
</svg>
