<svg width="26" height="25" viewBox="0 0 26 25" fill="none" xmlns="http://www.w3.org/2000/svg">
<path d="M25.3929 22.9862L2.08671 0.693301C1.8825 0.498066 1.55162 0.498066 1.34741 0.693301L0.608355 1.40027C0.404149 1.5955 0.404149 1.9121 0.608355 2.10738L7.3632 8.56853C7.32581 8.56042 7.29057 8.54678 7.25063 8.54678C6.9617 8.54678 6.72789 8.77042 6.72789 9.0468V11.5468C6.72789 14.6866 9.26315 17.266 12.4779 17.5215V21.5468H10.9097C9.75654 21.5468 8.81877 22.4438 8.81877 23.5468V24.0468C8.81877 24.3232 9.05257 24.5469 9.34151 24.5469H16.6597C16.9486 24.5469 17.1824 24.3232 17.1824 24.0468V23.5468C17.1824 22.4438 16.2447 21.5468 15.0915 21.5468H13.5233V17.4998C14.387 17.4301 15.2145 17.1944 15.9702 16.8014L23.9145 24.4003C24.1187 24.5955 24.4496 24.5955 24.6538 24.4003L25.3928 23.6933C25.597 23.498 25.597 23.1814 25.3929 22.9862ZM13.0006 16.5468C10.1184 16.5468 7.77333 14.3036 7.77333 11.5468V9.0468C7.77333 9.00859 7.75912 8.97489 7.75059 8.93913L8.81877 9.96081V11.5468C8.81881 13.7524 10.6948 15.5468 13.0006 15.5468C13.4817 15.5468 13.9547 15.4594 14.4035 15.3027L15.1957 16.0606C14.5114 16.3672 13.7697 16.5468 13.0006 16.5468Z" fill="#4D4D52"/>
<path d="M16.1689 12.7495C16.2685 12.8447 16.4017 12.896 16.5385 12.896C16.585 12.896 16.6319 12.8901 16.6779 12.878C16.8596 12.8296 17 12.6919 17.0454 12.5171C17.1388 12.1607 17.1823 11.8526 17.1823 11.5469V4.54686C17.1822 2.3413 15.3062 0.546875 13.0004 0.546875C10.6946 0.546875 8.8186 2.3413 8.8186 4.54686V5.51169C8.8186 5.64448 8.87373 5.77147 8.97175 5.86522L16.1689 12.7495Z" fill="#4D4D52"/>
<path d="M17.9363 14.4014C18.0103 14.4361 18.0884 14.4522 18.165 14.4522C18.3585 14.4522 18.5448 14.3492 18.6352 14.1714C19.0589 13.3413 19.2733 12.4585 19.2733 11.5469V9.04689C19.2733 8.77052 19.0395 8.54688 18.7506 8.54688C18.4616 8.54688 18.2278 8.77052 18.2278 9.04689V11.5469C18.2278 12.3052 18.0486 13.0406 17.6959 13.7329C17.5693 13.981 17.677 14.2803 17.9363 14.4014Z" fill="#4D4D52"/>
</svg>
