<svg width="22" height="22" viewBox="0 0 22 22" fill="none" xmlns="http://www.w3.org/2000/svg">
<path d="M17.9989 20.8743C19.7247 20.4306 21 18.8642 21 17V5C21 2.79086 19.2091 1 17 1H5C2.79086 1 1 2.79086 1 5V17C1 18.8642 2.27532 20.4306 4.00111 20.8743M17.9989 20.8743C17.6796 20.9563 17.3449 21 17 21H5C4.6551 21 4.32039 20.9563 4.00111 20.8743M17.9989 20.8743C17.9318 17.0663 14.824 14 11 14C7.17601 14 4.06818 17.0663 4.00111 20.8743M14 8C14 6.34315 12.6569 5 11 5C9.34315 5 8 6.34315 8 8C8 9.65685 9.34315 11 11 11C12.6569 11 14 9.65685 14 8Z" stroke="white" stroke-width="1.5"/>
</svg>
