<svg width="26" height="26" viewBox="0 0 26 26" fill="none" xmlns="http://www.w3.org/2000/svg">
<path d="M20.6516 21.8066C19.4926 18.7067 16.5039 16.4997 12.9997 16.4997C9.49545 16.4997 6.50671 18.7067 5.3477 21.8066M20.6516 21.8066C23.1114 19.6677 24.6663 16.5153 24.6663 12.9997C24.6663 6.55635 19.443 1.33301 12.9997 1.33301C6.55635 1.33301 1.33301 6.55635 1.33301 12.9997C1.33301 16.5153 2.888 19.6677 5.3477 21.8066M20.6516 21.8066C18.6032 23.5879 15.9274 24.6663 12.9997 24.6663C10.0719 24.6663 7.3961 23.5879 5.3477 21.8066M16.4997 9.49968C16.4997 11.4327 14.9327 12.9997 12.9997 12.9997C11.0667 12.9997 9.49968 11.4327 9.49968 9.49968C9.49968 7.56668 11.0667 5.99967 12.9997 5.99967C14.9327 5.99967 16.4997 7.56668 16.4997 9.49968Z" stroke="white" stroke-width="1.5" stroke-linejoin="round"/>
</svg>
