<svg width="26" height="24" viewBox="0 0 26 24" fill="none" xmlns="http://www.w3.org/2000/svg">
<path d="M4.83301 7.63041C6.30975 7.85911 7.95708 8.23933 9.49968 8.83585M4.83301 12.2971C5.57908 12.4126 6.36869 12.5668 7.16634 12.7681M12.9997 5.06226V21.6862M3.65973 1.51315C6.24783 1.8056 9.72499 2.59237 12.2026 4.32852C12.6788 4.66219 13.3205 4.66219 13.7967 4.32852C16.2744 2.59237 19.7515 1.8056 22.3396 1.51315C23.6205 1.36841 24.6663 2.43803 24.6663 3.75771V16.8999C24.6663 18.2196 23.6205 19.2896 22.3396 19.4344C19.7515 19.7268 16.2744 20.5136 13.7967 22.2497C13.3205 22.5834 12.6788 22.5834 12.2026 22.2497C9.72499 20.5136 6.24783 19.7268 3.65973 19.4344C2.37883 19.2896 1.33301 18.2196 1.33301 16.8999V3.75771C1.33301 2.43803 2.37883 1.36841 3.65973 1.51315Z" stroke="white" stroke-width="1.5" stroke-linecap="round"/>
</svg>
