<svg width="22" height="22" viewBox="0 0 22 22" fill="none" xmlns="http://www.w3.org/2000/svg">
<g clip-path="url(#clip0_2004_5992)">
<path d="M12.682 1.39664C12.4416 1.28195 12.1583 1.31235 11.951 1.47955L5.22988 6.8562H2.01854C1.25716 6.8562 0.636719 7.47664 0.636719 8.23802V13.7653C0.636719 14.5281 1.25716 15.1471 2.01854 15.1471H5.22988L11.9497 20.5238C12.0754 20.6233 12.2288 20.6744 12.3822 20.6744C12.4844 20.6744 12.5867 20.6509 12.682 20.6053C12.9211 20.4906 13.0731 20.2488 13.0731 19.9835V2.01984C13.0731 1.75453 12.9211 1.51271 12.682 1.39664Z" fill="black"/>
<path d="M16.5708 6.11484C16.2986 5.84677 15.8619 5.85091 15.5939 6.12037C15.3258 6.39259 15.3286 6.82924 15.5994 7.0987C16.6441 8.12953 17.2189 9.5155 17.2189 11.001C17.2189 12.4864 16.6441 13.8724 15.5994 14.9032C15.3286 15.1699 15.3258 15.6079 15.5939 15.8801C15.7293 16.017 15.9075 16.0847 16.0844 16.0847C16.2599 16.0847 16.4354 16.0183 16.5708 15.8843C17.8808 14.5951 18.6007 12.8595 18.6007 11.001C18.6007 9.1424 17.8808 7.40684 16.5708 6.11484Z" fill="black"/>
<path d="M18.5206 4.16734C18.2484 3.89789 17.8117 3.90065 17.5423 4.17149C17.2742 4.44232 17.277 4.88036 17.5464 5.14843C19.1176 6.70574 19.9826 8.784 19.9826 11.0004C19.9826 13.2169 19.1176 15.2937 17.5464 16.8511C17.277 17.1205 17.2742 17.5585 17.5423 17.8294C17.6791 17.9648 17.856 18.0325 18.0328 18.0325C18.2083 18.0325 18.3852 17.9662 18.5206 17.8321C20.3557 16.0151 21.3644 13.5886 21.3644 11.0004C21.3644 8.41229 20.3557 5.98581 18.5206 4.16734Z" fill="black"/>
</g>
<defs>
<clipPath id="clip0_2004_5992">
<rect width="20.7273" height="20.7273" fill="white" transform="translate(0.636719 0.636719)"/>
</clipPath>
</defs>
</svg>
