<svg width="26" height="24" viewBox="0 0 26 24" fill="none" xmlns="http://www.w3.org/2000/svg">
<path d="M7.16634 6.16667V3.83333C7.16634 2.54467 8.21101 1.5 9.49968 1.5H22.333C23.6217 1.5 24.6663 2.54467 24.6663 3.83333V14.3333C24.6663 15.622 23.6217 16.6667 22.333 16.6667H16.4997M11.833 6.75H19.9997M15.333 11.4167H19.9997M5.51643 17.3501C6.42765 18.2613 7.90503 18.2613 8.81626 17.3501C9.25384 16.9125 9.84734 16.6667 10.4662 16.6667H10.6663C11.955 16.6667 12.9997 17.7113 12.9997 19V20.1667C12.9997 21.4553 11.955 22.5 10.6663 22.5H3.66634C2.37768 22.5 1.33301 21.4553 1.33301 20.1667V19C1.33301 17.7113 2.37768 16.6667 3.66634 16.6667H3.86651C4.48535 16.6667 5.07884 16.9125 5.51643 17.3501ZM9.49968 12C9.49968 13.2887 8.45501 14.3333 7.16634 14.3333C5.87768 14.3333 4.83301 13.2887 4.83301 12C4.83301 10.7113 5.87768 9.66667 7.16634 9.66667C8.45501 9.66667 9.49968 10.7113 9.49968 12Z" stroke="white" stroke-width="1.5" stroke-linecap="round"/>
</svg>
