<svg width="30" height="19" viewBox="0 0 30 19" fill="none" xmlns="http://www.w3.org/2000/svg">
<path d="M23.4939 7.98535C23.181 8.81852 22.8682 9.65139 22.5498 10.4986C23.0631 10.4986 23.5493 10.4986 24.0646 10.4986C23.8811 9.65064 23.7016 8.81963 23.5219 7.98896C23.5125 7.98774 23.5033 7.98657 23.4939 7.98535Z" fill="white"/>
<path d="M27.6157 0H2.38386C1.06955 0 0 1.0315 0 2.29954V16.7005C0 17.9685 1.06955 19 2.38386 19H27.6157C28.9305 19 30 17.9685 30 16.7005V2.29954C30 1.0315 28.9305 0 27.6157 0ZM17.6774 10.4861C17.4897 10.3426 17.2741 10.2299 17.0604 10.1226C16.7046 9.94407 16.3528 9.76312 16.0435 9.5123C15.1611 8.79746 15.2738 7.79814 15.7514 7.12576C16.1443 6.57298 16.722 6.28047 17.3786 6.12044C17.5878 6.06935 17.8052 6.05051 18.0183 6.01581C18.05 6.01068 18.0807 6.00012 18.1119 5.99202C18.3456 5.99202 18.5794 5.99202 18.8131 5.99202C19.0174 6.02445 19.2231 6.04975 19.4252 6.0918C19.6242 6.13314 19.8201 6.19036 20.0166 6.24295C20.0642 6.2556 20.1092 6.27637 20.1649 6.29713C20.0594 6.77142 19.9553 7.24127 19.851 7.71119C19.6115 7.63835 19.3825 7.55554 19.1464 7.50014C18.7215 7.40053 18.2877 7.35784 17.8597 7.46888C17.7049 7.50918 17.5492 7.59327 17.4281 7.69521C17.2228 7.86789 17.2225 8.12022 17.4207 8.30053C17.5556 8.42329 17.714 8.52593 17.8742 8.61743C18.1933 8.79938 18.5286 8.95549 18.8433 9.14391C19.2666 9.3973 19.619 9.72061 19.7601 10.2026C19.9652 10.9028 19.7411 11.8362 18.9326 12.399C18.4675 12.7227 17.9411 12.8923 17.3808 12.9616C16.4993 13.0707 15.6343 12.9873 14.7918 12.7084C14.7449 12.693 14.6998 12.6727 14.6402 12.6493C14.7492 12.1568 14.857 11.6681 14.9678 11.1683C15.039 11.1981 15.1003 11.2219 15.1596 11.2491C15.6808 11.4875 16.2304 11.6017 16.8063 11.5952C17.0705 11.5923 17.3295 11.553 17.568 11.4314C18.0035 11.2096 18.0612 10.779 17.6774 10.4861ZM14.746 6.77714C14.3055 8.7648 13.8633 10.7521 13.4273 12.7409C13.3994 12.8682 13.3523 12.9054 13.2175 12.9031C12.7211 12.8943 12.2245 12.8997 11.7279 12.8997C11.6823 12.8997 11.637 12.8997 11.5684 12.8997C12.0727 10.6279 12.5728 8.37437 13.073 6.12237C13.6813 6.12237 14.277 6.12237 14.8878 6.12237C14.8393 6.3463 14.7934 6.56195 14.746 6.77714ZM12.1886 6.35347C11.2567 8.49876 10.3238 10.644 9.39377 12.7901C9.35821 12.872 9.31583 12.9031 9.22071 12.9024C8.65752 12.8976 8.09403 12.8986 7.53066 12.9019C7.44576 12.9026 7.4099 12.8823 7.38711 12.7971C6.91667 11.0306 6.43813 9.26591 5.97193 7.49851C5.88818 7.18139 5.72304 6.96218 5.4094 6.82747C4.89264 6.60592 4.35558 6.45144 3.80696 6.32798C3.78295 6.32244 3.75973 6.31334 3.73621 6.306C3.73621 6.28972 3.73621 6.27381 3.73621 6.25753C3.75308 6.12428 3.84016 6.11215 3.96152 6.11262C4.91714 6.11758 5.87289 6.11548 6.82857 6.11565C7.30324 6.11565 7.62874 6.37067 7.71714 6.82057C7.96173 8.06411 8.20348 9.30825 8.44625 10.5523C8.45471 10.5955 8.4659 10.6382 8.50194 10.69C9.12735 9.16665 9.75258 7.64342 10.377 6.12235C11.0118 6.12235 11.64 6.12235 12.2834 6.12235C12.249 6.20645 12.2203 6.28046 12.1886 6.35347ZM24.5874 12.8938C24.5344 12.6523 24.4794 12.4107 24.4284 12.1683C24.3687 11.8837 24.3703 11.8835 24.0645 11.8835C23.4262 11.8835 22.7879 11.8851 22.1494 11.8818C22.0604 11.8813 22.0171 11.906 21.988 11.9895C21.8919 12.2634 21.7891 12.5351 21.6822 12.8052C21.667 12.8433 21.6138 12.8938 21.5776 12.8942C20.9731 12.8997 20.3684 12.8981 19.7504 12.8981C19.7661 12.8556 19.776 12.8219 19.79 12.7899C20.6792 10.7414 21.5687 8.69283 22.4589 6.64434C22.6097 6.29713 22.8886 6.11804 23.2761 6.11757C23.7765 6.1171 24.2769 6.1174 24.7956 6.1174C25.2843 8.37343 25.7725 10.6268 26.2635 12.8938C25.6938 12.8938 25.1479 12.8938 24.5874 12.8938Z" fill="white"/>
</svg>
