<svg width="33" height="11" viewBox="0 0 33 11" fill="none" xmlns="http://www.w3.org/2000/svg">
<path fill-rule="evenodd" clip-rule="evenodd" d="M13.3775 0.410101L11.7199 10.5967H14.3718L16.0296 0.410101H13.3775ZM9.48868 0.410101L6.96025 7.41637L6.66117 5.90767L6.66138 5.90817L6.59548 5.57002C6.28947 4.91054 5.58076 3.65713 4.24251 2.58746C3.84687 2.27128 3.44804 2.00144 3.0625 1.77095L5.36044 10.5967H8.12353L12.343 0.410101H9.48868ZM19.8387 3.23811C19.8387 2.08642 22.4214 2.23441 23.5563 2.85977L23.9347 0.671957C23.9347 0.671957 22.7668 0.227783 21.5494 0.227783C20.2333 0.227783 17.108 0.803344 17.108 3.59999C17.108 6.23197 20.7761 6.26468 20.7761 7.64651C20.7761 9.02833 17.4862 8.78138 16.4005 7.90971L16.0059 10.1965C16.0059 10.1965 17.19 10.772 18.9997 10.772C20.8092 10.772 23.5398 9.8346 23.5398 7.28463C23.5398 4.63618 19.8387 4.38951 19.8387 3.23811ZM30.6605 0.410101H28.5283C27.5437 0.410101 27.304 1.16925 27.304 1.16925L23.3491 10.5967H26.1132L26.6662 9.08371H30.0376L30.3486 10.5967H32.7837L30.6605 0.410101ZM27.4304 6.99331L28.8239 3.18124L29.6079 6.99331H27.4304Z" fill="#005BAC"/>
<path fill-rule="evenodd" clip-rule="evenodd" d="M5.80591 1.36736C5.80591 1.36736 5.69614 0.447998 4.52425 0.447998H0.266668L0.216797 0.620779C0.216797 0.620779 2.26333 1.03797 4.22672 2.60098C6.10302 4.09484 6.7151 5.95701 6.7151 5.95701L5.80591 1.36736Z" fill="#F6AC1D"/>
</svg>
